<svg id="visual" viewBox="0 0 320 320" width="320" height="320" xmlns="http://www.w3.org/2000/svg" xmlns:xlink="http://www.w3.org/1999/xlink" version="1.1"><g transform="translate(176.21345373130202 181.24236297921388)"><path d="M79.9 -103C91.2 -85.7 79.6 -48.8 72.7 -22.5C65.8 3.8 63.6 19.7 55.7 31.1C47.8 42.5 34.2 49.4 18.6 58.1C3.1 66.7 -14.4 77.1 -28.2 73.7C-42 70.3 -52.2 53.1 -70.2 34.5C-88.2 15.8 -114 -4.4 -116.8 -26.1C-119.6 -47.8 -99.3 -71 -76 -86.3C-52.7 -101.5 -26.4 -108.7 4 -113.5C34.3 -118.2 68.6 -120.4 79.9 -103" fill="#00ff62"></path></g></svg>