<svg id="visual" viewBox="0 0 900 600" width="900" height="600" xmlns="http://www.w3.org/2000/svg" xmlns:xlink="http://www.w3.org/1999/xlink" version="1.1"><rect x="0" y="0" width="900" height="600" fill="#ffffff"></rect><path d="M0 98L10 103.7C20 109.3 40 120.7 60 125.3C80 130 100 128 120 120.5C140 113 160 100 180 99.8C200 99.7 220 112.3 240 120.2C260 128 280 131 300 129C320 127 340 120 360 122.8C380 125.7 400 138.3 420 140.5C440 142.7 460 134.3 480 125.3C500 116.3 520 106.7 540 108.5C560 110.3 580 123.7 600 131C620 138.3 640 139.7 660 133.8C680 128 700 115 720 111.3C740 107.7 760 113.3 780 119.8C800 126.3 820 133.7 840 129.5C860 125.3 880 109.7 890 101.8L900 94L900 0L890 0C880 0 860 0 840 0C820 0 800 0 780 0C760 0 740 0 720 0C700 0 680 0 660 0C640 0 620 0 600 0C580 0 560 0 540 0C520 0 500 0 480 0C460 0 440 0 420 0C400 0 380 0 360 0C340 0 320 0 300 0C280 0 260 0 240 0C220 0 200 0 180 0C160 0 140 0 120 0C100 0 80 0 60 0C40 0 20 0 10 0L0 0Z" fill="#eb8f80"></path><path d="M0 74L10 78.5C20 83 40 92 60 95.8C80 99.7 100 98.3 120 93C140 87.7 160 78.3 180 79.5C200 80.7 220 92.3 240 103C260 113.7 280 123.3 300 122.8C320 122.3 340 111.7 360 108.3C380 105 400 109 420 110.7C440 112.3 460 111.7 480 110.2C500 108.7 520 106.3 540 104C560 101.7 580 99.3 600 97.3C620 95.3 640 93.7 660 97C680 100.3 700 108.7 720 113.5C740 118.3 760 119.7 780 118.8C800 118 820 115 840 111.3C860 107.7 880 103.3 890 101.2L900 99L900 0L890 0C880 0 860 0 840 0C820 0 800 0 780 0C760 0 740 0 720 0C700 0 680 0 660 0C640 0 620 0 600 0C580 0 560 0 540 0C520 0 500 0 480 0C460 0 440 0 420 0C400 0 380 0 360 0C340 0 320 0 300 0C280 0 260 0 240 0C220 0 200 0 180 0C160 0 140 0 120 0C100 0 80 0 60 0C40 0 20 0 10 0L0 0Z" fill="#deaa77"></path><path d="M0 88L10 87.3C20 86.7 40 85.3 60 83.2C80 81 100 78 120 76.7C140 75.3 160 75.7 180 71.3C200 67 220 58 240 54C260 50 280 51 300 50C320 49 340 46 360 50.7C380 55.3 400 67.7 420 69C440 70.3 460 60.7 480 60.5C500 60.3 520 69.7 540 76.2C560 82.7 580 86.3 600 87.3C620 88.3 640 86.7 660 83.3C680 80 700 75 720 70C740 65 760 60 780 62.5C800 65 820 75 840 73.2C860 71.3 880 57.7 890 50.8L900 44L900 0L890 0C880 0 860 0 840 0C820 0 800 0 780 0C760 0 740 0 720 0C700 0 680 0 660 0C640 0 620 0 600 0C580 0 560 0 540 0C520 0 500 0 480 0C460 0 440 0 420 0C400 0 380 0 360 0C340 0 320 0 300 0C280 0 260 0 240 0C220 0 200 0 180 0C160 0 140 0 120 0C100 0 80 0 60 0C40 0 20 0 10 0L0 0Z" fill="#c8c487"></path><path d="M0 33L10 38.2C20 43.3 40 53.7 60 56.7C80 59.7 100 55.3 120 51.5C140 47.7 160 44.3 180 44.7C200 45 220 49 240 46.7C260 44.3 280 35.7 300 32.3C320 29 340 31 360 36C380 41 400 49 420 53.3C440 57.7 460 58.3 480 56.3C500 54.3 520 49.7 540 49C560 48.3 580 51.7 600 52.5C620 53.3 640 51.7 660 55.3C680 59 700 68 720 68.5C740 69 760 61 780 61C800 61 820 69 840 66C860 63 880 49 890 42L900 35L900 0L890 0C880 0 860 0 840 0C820 0 800 0 780 0C760 0 740 0 720 0C700 0 680 0 660 0C640 0 620 0 600 0C580 0 560 0 540 0C520 0 500 0 480 0C460 0 440 0 420 0C400 0 380 0 360 0C340 0 320 0 300 0C280 0 260 0 240 0C220 0 200 0 180 0C160 0 140 0 120 0C100 0 80 0 60 0C40 0 20 0 10 0L0 0Z" fill="#b2d9ab"></path><path d="M0 16L10 14.7C20 13.3 40 10.7 60 11.8C80 13 100 18 120 18.2C140 18.3 160 13.7 180 11.2C200 8.7 220 8.3 240 14C260 19.7 280 31.3 300 33C320 34.7 340 26.3 360 20.8C380 15.3 400 12.7 420 11.5C440 10.3 460 10.7 480 16.3C500 22 520 33 540 36C560 39 580 34 600 34C620 34 640 39 660 36.8C680 34.7 700 25.3 720 20.3C740 15.3 760 14.7 780 18.3C800 22 820 30 840 34.2C860 38.3 880 38.7 890 38.8L900 39L900 0L890 0C880 0 860 0 840 0C820 0 800 0 780 0C760 0 740 0 720 0C700 0 680 0 660 0C640 0 620 0 600 0C580 0 560 0 540 0C520 0 500 0 480 0C460 0 440 0 420 0C400 0 380 0 360 0C340 0 320 0 300 0C280 0 260 0 240 0C220 0 200 0 180 0C160 0 140 0 120 0C100 0 80 0 60 0C40 0 20 0 10 0L0 0Z" fill="#aae8d6"></path></svg>