<svg id="visual" viewBox="0 0 320 320" width="320" height="320" xmlns="http://www.w3.org/2000/svg" xmlns:xlink="http://www.w3.org/1999/xlink" version="1.1"><g transform="translate(165.864062752073 168.86969617274713)"><path d="M78.2 -80.4C100.7 -74.3 117.8 -49.1 122.1 -22C126.3 5.1 117.7 34.1 99.2 48.8C80.6 63.6 52.1 64.2 30.1 64.2C8.1 64.2 -7.4 63.6 -29 62.9C-50.5 62.3 -78.1 61.7 -100.5 46.5C-123 31.4 -140.3 1.8 -133.3 -21C-126.3 -43.8 -94.9 -59.8 -68.7 -65.2C-42.4 -70.6 -21.2 -65.3 3.3 -69.2C27.9 -73.2 55.7 -86.4 78.2 -80.4" fill="#ff45bd"></path></g></svg>