<svg id="visual" viewBox="0 0 320 320" width="320" height="320" xmlns="http://www.w3.org/2000/svg" xmlns:xlink="http://www.w3.org/1999/xlink" version="1.1"><g transform="translate(172.1808065589646 158.49266751895294)"><path d="M79 -84.7C102.3 -74.6 121.1 -49.6 118.7 -26.4C116.3 -3.1 92.8 18.5 76.4 41.5C60 64.6 50.7 89.1 33.7 97.5C16.6 105.9 -8.1 98 -36.1 91.3C-64 84.5 -95.2 78.7 -116 59.1C-136.8 39.4 -147.2 5.8 -141.9 -25.1C-136.5 -56.1 -115.5 -84.3 -89.3 -93.9C-63 -103.4 -31.5 -94.2 -1.8 -92C27.9 -89.9 55.7 -94.7 79 -84.7" fill="#ff45bd"></path></g></svg>