<svg id="visual" viewBox="0 0 320 320" width="320" height="320" xmlns="http://www.w3.org/2000/svg" xmlns:xlink="http://www.w3.org/1999/xlink" version="1.1"><g transform="translate(170.80521251042563 185.059961075158)"><path d="M70 -80.1C93.3 -63.9 116.6 -44.3 115 -24.5C113.4 -4.8 87 15.1 67.3 28.9C47.5 42.8 34.3 50.5 20.8 54.1C7.3 57.6 -6.6 57 -28.6 58C-50.6 58.9 -80.7 61.5 -103.6 47.4C-126.4 33.4 -142 2.8 -135 -21.5C-128 -45.8 -98.4 -63.9 -72.1 -79.6C-45.9 -95.3 -22.9 -108.7 0.2 -108.9C23.4 -109.2 46.7 -96.3 70 -80.1" fill="#8438f7"></path></g></svg>