<svg id="visual" viewBox="0 0 320 320" width="320" height="320" xmlns="http://www.w3.org/2000/svg" xmlns:xlink="http://www.w3.org/1999/xlink" version="1.1"><g transform="translate(164.573421920969 157.5276607845029)"><path d="M75.9 -86.9C89.2 -79.3 84.5 -46.7 89.5 -16.1C94.5 14.5 109.2 43 102.6 63.8C96 84.6 68.2 97.8 43.8 96.2C19.4 94.6 -1.6 78.3 -31.4 73.2C-61.2 68 -99.9 74 -110.3 61.2C-120.6 48.4 -102.7 16.7 -95.7 -15.9C-88.8 -48.5 -92.9 -82.1 -78.8 -89.6C-64.7 -97.1 -32.4 -78.6 -0.5 -77.9C31.3 -77.3 62.6 -94.6 75.9 -86.9" fill="#8438f7"></path></g></svg>